<?xml version="1.0" encoding="UTF-8"?><svg id="Layer_1" xmlns="http://www.w3.org/2000/svg" xmlns:xlink="http://www.w3.org/1999/xlink" viewBox="0 0 407.1967 118.73644"><defs><style>.cls-1{fill:url(#radial-gradient);}.cls-1,.cls-2,.cls-3{stroke-width:0px;}.cls-2{fill:#ffffff;}.cls-3{fill:#ffffff;}</style><radialGradient id="radial-gradient" cx="13.45876" cy="118.99694" fx="13.45876" fy="118.99694" r="144.93324" gradientUnits="userSpaceOnUse"><stop offset="0" stop-color="#a74a9c"/><stop offset=".15224" stop-color="#a74a9c"/><stop offset=".63101" stop-color="#692c8d"/><stop offset="1" stop-color="#04bfdc"/></radialGradient></defs><path class="cls-3" d="m147.17966,95.89898h4.22987l5.5783,9.39386,5.50088-9.39386h4.15161v19.09739h-4.04782v-11.72829l-4.35919,7.47289h-2.59475l-4.41108-7.52394v11.77933h-4.04782v-19.09739Z"/><path class="cls-3" d="m177.76203,95.89898h4.20435l6.48603,19.09739h-4.4885l-.88222-2.8806h-6.43499l-.88222,2.8806h-4.43745l6.43499-19.09739Zm4.17798,12.53309l-2.10218-6.77358-2.0758,6.77358h4.17798Z"/><path class="cls-3" d="m197.42346,107.52347v7.47289h-4.30729v-19.09739h6.48688c4.04782,0,6.53878,2.02306,6.53878,5.94156,0,2.62198-1.58323,4.59229-4.28177,5.26778l5.47536,7.88805h-5.18951l-4.72245-7.47289Zm1.97201-3.4506c1.45306,0,2.3608-.85584,2.3608-2.23234,0-1.37479-.90774-2.23064-2.3608-2.23064h-1.97201v4.46298h1.97201Z"/><path class="cls-3" d="m216.53956,107.05557v7.9408h-4.30729v-19.09739h4.30729v7.39462l5.21588-7.23979h5.05934l-6.56515,8.95318,6.92842,9.98938h-5.2414l-5.39709-7.9408Z"/><path class="cls-3" d="m231.55595,95.89898h10.8197v3.99677h-6.51241v3.4506h6.43499v3.99507h-6.43499v3.65818h6.6162v3.99677h-10.92349v-19.09739Z"/><path class="cls-3" d="m251.2965,99.89575h-4.30814v-3.99677h12.92272v3.99677h-4.30814v15.10062h-4.30644v-15.10062Z"/><path class="cls-3" d="m264.75689,95.89898h4.30729v19.09739h-4.30729v-19.09739Z"/><path class="cls-3" d="m275.39198,95.89898h3.89213l7.26531,11.33865v-11.33865h4.04782v19.09739h-3.89213l-7.26531-11.31313v11.31313h-4.04782v-19.09739Z"/><path class="cls-3" d="m295.33032,105.44767c0-5.83777,4.17713-9.93833,9.93833-9.93833,3.00991,0,5.63019,1.0379,7.68047,3.42508l-3.14008,2.95887c-1.06427-1.42754-2.72492-2.31061-4.54039-2.31061-3.32128,0-5.52725,2.43992-5.52725,5.89052,0,3.55609,2.3608,5.89052,5.52725,5.89052,2.67217,0,4.4885-1.58237,4.85176-3.78749h-5.5783v-3.78919h10.17144v1.66064c0,5.91604-3.71092,9.93833-9.4449,9.93833-5.68294,0-9.93833-4.10056-9.93833-9.93833Z"/><path class="cls-2" d="m270.85461,37.18739c5.42441,5.34061,8.13846,12.53359,8.13846,21.57894,0,8.84167-3.10526,16.0523-9.31505,21.62866-6.20978,5.64533-13.95704,8.46639-23.23955,8.46639-9.03255,0-16.24587-2.68474-21.63996-8.05903-5.39557-5.37268-8.09187-12.61538-8.09187-21.7313,0-8.77271,3.10526-15.94805,9.31505-21.52602,6.14619-5.57636,13.8927-8.36535,23.23955-8.36535,8.96895,0,16.16674,2.6703,21.59337,8.0077Zm-28.60444-1.2389c-5.03643,1.12048-6.06406,11.78916-3.19989,24.95219,2.6888,12.35706,9.21859,22.68826,14.17715,21.45283,5.30264-1.32116,5.60192-14.4891,2.70858-25.80709-4.2762-16.72737-9.75893-21.47156-13.68584-20.59792Z"/><path class="cls-2" d="m334.50088,65.21837c-3.99984,4.68406-10.68051,8.12899-18.03468,8.12899-10.45789,0-16.08053-8.61766-17.76584-15.2051l35.35887-7.33251c-1.98308-18.7645-19.60107-23.29439-29.0992-21.65192-8.84669,1.52981-15.80531,5.81172-20.9257,12.56206-5.12089,6.75234-6.9025,14.3579-5.34582,22.82007,1.55667,8.46238,5.66527,14.91581,12.3273,19.36031,6.66143,4.4461,13.43432,6.38427,22.93575,4.28652,18.49897-4.08444,21.38669-19.00386,22.43707-22.31969l-1.88776-.64873Zm-30.12542-29.63416c3.83976-.58959,8.4285,1.61181,9.39558,6.69501.40736,2.14085.25961,4.53591-1.14089,6.57633-1.17177,1.70703-3.2206,3.16547-6.55508,4.01909l-8.27293,1.73289c-2.08232-11.6062.44756-18.08289,6.57332-19.02331Z"/><path class="cls-2" d="m174.04729,84.30399c10.78727-19.94597,43.91809-71.85691,43.91809-71.85691h-67.58476v21.57747c20.87852,0,33.97897-19.19485,41.63115-19.19485-19.79052,32.03483-44.8321,72.29769-44.8321,72.29769h66.45148v-24.79133c-18.84398,1.42166-31.17007,21.96793-39.58385,21.96793Z"/><path class="cls-2" d="m382.12521,87.12729h25.07149l-24.80747-32.53862c10.79017-7.12221,17.10358-15.14355,19.26127-23.50108h-22.98366c0,5.53787-2.50612,15.40457-17.07531,26.25939V0l-28.00451,11.88566c3.91825,3.83946,5.86585,10.93461,5.86585,17.19098l.02145,58.05065h22.11721v-22.14287c1.38497-.53506,2.72864-1.08035,4.04034-1.63366l16.49334,23.77653Z"/><path class="cls-1" d="m58.67185,87.6377c-7.4317,5.88434-16.24152,11.67505-25.14587,11.67505-6.48016,0-8.01019-6.74054-8.01019-11.18274,0-17.9162,25.03076-46.9469,25.44788-53.77423.16016-2.62122-.76282-4.70239-4.09344-4.70239-3.0683,0-19.58997,4.08209-46.7478,26.55847-1.35944,21.00568,8.64819,42.04578,27.8302,53.83252,27.60986,16.96552,63.74548,8.33667,80.71143-19.27271,10.08923-16.41949,11.10913-35.84583,4.48633-52.47058-15.56396,14.43805-50.82117,46.4408-54.47852,49.33661Zm-39.91235-23.34729c-1.54852,0-2.80371-1.25537-2.80371-2.80408,0-1.54791,1.25519-2.80322,2.80371-2.80322,1.54828,0,2.80365,1.25531,2.80365,2.80322,0,1.54871-1.25537,2.80408-2.80365,2.80408Zm63.93536,30.526c-3.02698.90363-5.40485,3.28174-6.30804,6.30743-.09631.32355-.39661.54352-.73492.54352-.33783,0-.63837-.21997-.73492-.54352-.9032-3.0257-3.28082-5.40381-6.3078-6.30743-.32404-.09656-.54352-.39703-.54352-.7345,0-.33868.21973-.63922.54395-.73578,3.02655-.90192,5.40442-3.2796,6.30737-6.30615.09656-.32526.39709-.54474.73492-.54474.33832,0,.63861.21948.73492.54474.90302,3.02655,3.28088,5.40424,6.30786,6.30615.32379.09656.54352.39709.54352.73578,0,.33746-.21954.63794-.54333.7345Zm17.96991-18.01648c-1.54852,0-2.80365-1.25452-2.80365-2.80328s1.25513-2.80408,2.80365-2.80408c1.54834,0,2.80365,1.25537,2.80365,2.80408s-1.25531,2.80328-2.80365,2.80328Zm32.28186-57.54614c-3.62189.29926-9.62482,1.32037-15.61536,4.49469-2.04523-1.35693-4.43048-2.11493-6.87378-2.15143-.87115-.01263-1.26544,1.11475-.5979,1.67505,2.02094,1.69434,3.82166,3.7027,5.35822,5.9834-1.73236.80328-3.4649,1.60791-5.19623,2.41626-4.7356-8.58771-11.67804-16.11145-20.63-21.61218C61.78153-6.90637,25.64591,1.7229,8.68015,29.33228c-3.80219,6.18695-6.3089,12.80371-7.61462,19.53546C13.19242,37.24848,43.16776,10.66987,63.63138,10.66987c6.70496,0,10.33203,4.54126,10.33203,8.74927,0,6.61633-10.56036,17.27991-15.86548,25.31824-4.1944,6.35565-13.79779,20.46301-13.79779,26.81488,0,2.30969.88959,4.88922,4.20612,4.88922,4.1994,0,23.39343-11.49927,39.20959-23.21588,9.69092-7.17871,21.31671-15.38367,29.27924-20.94568.0462.09064.08356.18341.12842.27283.00378-.00171.00757-.00507.01135-.00671.16241.32568.30133.65765.45074.98755.06842.15155.14734.30011.21283.45203-.00146.00085-.00317.00256-.00464.00378.87445,2.01544,1.52106,4.08423,1.9057,6.17859.15717.85748,1.33258,1.07025,1.75122.30597,1.17438-2.14264,1.69189-4.59125,1.52124-7.03979,5.7171-3.64398,9.56757-8.36151,11.61487-11.36328.86188-1.26331-.11603-2.94299-1.6402-2.81708Zm-45.94366,18.54913c-2.58081.76971-4.60797,2.79694-5.37793,5.37689-.0827.27661-.33875.46338-.62665.46338-.28833,0-.54437-.18677-.62683-.46338-.76996-2.57996-2.79718-4.60718-5.37817-5.37689-.27576-.0827-.46338-.33875-.46338-.6275,0-.28748.18762-.54352.46381-.62622,2.58081-.76892,4.60779-2.79608,5.37775-5.37775.08246-.27576.3385-.46295.62683-.46295.2879,0,.54395.18719.62665.46295.76971,2.58167,2.79675,4.60883,5.3775,5.37775.27643.0827.46362.33875.46362.62622,0,.28876-.18701.5448-.4632.6275Z"/></svg>